<svg xmlns="http://www.w3.org/2000/svg" viewBox="0 0 160 160" aria-label="Café Chupucay CC">
  <defs>
    <linearGradient id="g" x1="0" y1="0" x2="1" y2="1">
      <stop offset="0" stop-color="#ffb03a"/>
      <stop offset="1" stop-color="#ff8200"/>
    </linearGradient>
  </defs>
  <circle cx="80" cy="80" r="76" fill="url(#g)"/>
  <g fill="#fff">
    <path d="M55 64c-10.8 0-19.2 8.6-19.2 19.3v20.6c0 10.8 8.4 19.3 19.2 19.3h9.8c3.1 0 5.6-2.5 5.6-5.6V104c0-3.1-2.5-5.6-5.6-5.6s-5.6 2.5-5.6 5.6v7.8H55c-4.5 0-8-3.4-8-7.9V83.3c0-4.5 3.5-7.9 8-7.9h4.2v7.3c0 3.1 2.5 5.6 5.6 5.6s5.6-2.5 5.6-5.6V69.6c0-3.1-2.5-5.6-5.6-5.6H55Z"/>
    <path d="M105 64c-10.8 0-19.2 8.6-19.2 19.3v20.6c0 10.8 8.4 19.3 19.2 19.3h9.8c3.1 0 5.6-2.5 5.6-5.6V104c0-3.1-2.5-5.6-5.6-5.6s-5.6 2.5-5.6 5.6v7.8H105c-4.5 0-8-3.4-8-7.9V83.3c0-4.5 3.5-7.9 8-7.9h4.2v7.3c0 3.1 2.5 5.6 5.6 5.6s5.6-2.5 5.6-5.6V69.6c0-3.1-2.5-5.6-5.6-5.6H105Z"/>
    <path d="M79.8 18.7c-15.6 11.9-20.7 23.5-15 34.5 12.9-5.6 17.9-17.2 15-34.5Z"/>
    <path d="M51.6 25.8c-4.4 16 .4 25.9 14.4 29.8 5.2-13.3.4-23.2-14.4-29.8Z" opacity=".95"/>
    <path d="M108.5 25.8C93.7 32.4 88.9 42.3 94 55.6c14-3.9 18.8-13.8 14.5-29.8Z" opacity=".95"/>
  </g>
</svg>