<svg xmlns="http://www.w3.org/2000/svg" viewBox="0 0 1200 310" role="img" aria-label="Café Chupucay">
<defs>
  <linearGradient id="og" x1="0" x2="1" y1="0" y2="1">
    <stop offset="0" stop-color="#ff8a00"/>
    <stop offset="1" stop-color="#f77600"/>
  </linearGradient>
  <filter id="shadow" x="-20%" y="-20%" width="140%" height="140%">
    <feDropShadow dx="0" dy="10" stdDeviation="10" flood-color="#000" flood-opacity=".45"/>
  </filter>
</defs>
<rect width="1200" height="310" fill="none"/>
<g filter="url(#shadow)">
  <circle cx="154" cy="155" r="126" fill="url(#og)"/>
  <g fill="none" stroke="#20130d" stroke-width="11" stroke-linecap="round" stroke-linejoin="round">
    <path d="M75 105 C58 57 100 44 124 98 C125 45 175 38 175 101 C201 47 245 61 225 108"/>
    <path d="M78 105 C86 132 113 143 151 143 C190 143 218 132 226 108"/>
    <path d="M119 54 C130 78 130 107 118 132"/>
    <path d="M174 49 C160 78 160 107 176 134"/>
  </g>
  <text x="154" y="215" text-anchor="middle" font-family="Arial Black, Montserrat, Arial, sans-serif" font-size="118" font-weight="900" fill="#20130d" letter-spacing="-8">CC</text>
</g>
<g filter="url(#shadow)">
  <text x="330" y="128" font-family="Arial Black, Montserrat, Arial, sans-serif" font-size="115" font-weight="900" fill="#fff" letter-spacing="-5">Café</text>
  <text x="330" y="244" font-family="Arial Black, Montserrat, Arial, sans-serif" font-size="115" font-weight="900" fill="#fff" letter-spacing="-7">CHUPUCAY</text>
</g>
</svg>